<svg width="20" height="20" viewBox="0 0 20 20" fill="none" xmlns="http://www.w3.org/2000/svg">
<path d="M12.0006 6.00018C12.0006 5.82337 11.9304 5.65379 11.8053 5.52876C11.6803 5.40374 11.5107 5.3335 11.3339 5.3335C11.1571 5.3335 10.9875 5.40374 10.8625 5.52876C10.7375 5.65379 10.6672 5.82337 10.6672 6.00018V8.00025H8.66718C8.49036 8.00025 8.32078 8.07049 8.19576 8.19551C8.07073 8.32054 8.00049 8.49012 8.00049 8.66693C8.00049 8.84375 8.07073 9.01332 8.19576 9.13835C8.32078 9.26338 8.49036 9.33362 8.66718 9.33362H10.6672V11.3337C10.6672 11.5105 10.7375 11.6801 10.8625 11.8051C10.9875 11.9301 11.1571 12.0004 11.3339 12.0004C11.5107 12.0004 11.6803 11.9301 11.8053 11.8051C11.9304 11.6801 12.0006 11.5105 12.0006 11.3337V9.33362H14.0007C14.1775 9.33362 14.3471 9.26338 14.4721 9.13835C14.5971 9.01332 14.6674 8.84375 14.6674 8.66693C14.6674 8.49012 14.5971 8.32054 14.4721 8.19551C14.3471 8.07049 14.1775 8.00025 14.0007 8.00025H12.0006V6.00018Z" fill="white"/>
<path d="M0.666687 0C0.489871 0 0.320296 0.07024 0.195268 0.195268C0.0702401 0.320296 0 0.489871 0 0.666687C0 0.843504 0.0702401 1.01308 0.195268 1.13811C0.320296 1.26313 0.489871 1.33337 0.666687 1.33337H2.14673L2.68142 3.47611L4.67881 14.1231C4.70741 14.2759 4.78849 14.4139 4.90803 14.5132C5.02758 14.6125 5.17807 14.667 5.3335 14.6671H6.66687C5.95961 14.6671 5.28131 14.9481 4.7812 15.4482C4.28108 15.9483 4.00012 16.6266 4.00012 17.3339C4.00012 18.0411 4.28108 18.7194 4.7812 19.2195C5.28131 19.7197 5.95961 20.0006 6.66687 20.0006C7.37414 20.0006 8.05244 19.7197 8.55255 19.2195C9.05266 18.7194 9.33362 18.0411 9.33362 17.3339C9.33362 16.6266 9.05266 15.9483 8.55255 15.4482C8.05244 14.9481 7.37414 14.6671 6.66687 14.6671H16.0005C15.2932 14.6671 14.6149 14.9481 14.1148 15.4482C13.6147 15.9483 13.3337 16.6266 13.3337 17.3339C13.3337 18.0411 13.6147 18.7194 14.1148 19.2195C14.6149 19.7197 15.2932 20.0006 16.0005 20.0006C16.7078 20.0006 17.3861 19.7197 17.8862 19.2195C18.3863 18.7194 18.6672 18.0411 18.6672 17.3339C18.6672 16.6266 18.3863 15.9483 17.8862 15.4482C17.3861 14.9481 16.7078 14.6671 16.0005 14.6671H17.3339C17.4893 14.667 17.6398 14.6125 17.7593 14.5132C17.8789 14.4139 17.96 14.2759 17.9886 14.1231L19.9886 3.45611C20.0066 3.35989 20.0032 3.26088 19.9787 3.16612C19.9541 3.07136 19.909 2.98318 19.8465 2.90783C19.784 2.83248 19.7057 2.77182 19.6171 2.73015C19.5285 2.68849 19.4318 2.66684 19.3339 2.66675H3.85345L3.31344 0.505349C3.27745 0.361056 3.19425 0.232939 3.07707 0.141371C2.95989 0.0498024 2.81546 4.10832e-05 2.66675 0H0.666687ZM5.88685 13.3337L4.13613 4.00012H18.5312L16.7805 13.3337H5.88685ZM8.00025 17.3339C8.00025 17.6875 7.85977 18.0266 7.60971 18.2767C7.35965 18.5268 7.02051 18.6672 6.66687 18.6672C6.31324 18.6672 5.97409 18.5268 5.72403 18.2767C5.47398 18.0266 5.3335 17.6875 5.3335 17.3339C5.3335 16.9802 5.47398 16.6411 5.72403 16.391C5.97409 16.141 6.31324 16.0005 6.66687 16.0005C7.02051 16.0005 7.35965 16.141 7.60971 16.391C7.85977 16.6411 8.00025 16.9802 8.00025 17.3339ZM17.3339 17.3339C17.3339 17.6875 17.1934 18.0266 16.9433 18.2767C16.6933 18.5268 16.3541 18.6672 16.0005 18.6672C15.6469 18.6672 15.3077 18.5268 15.0577 18.2767C14.8076 18.0266 14.6671 17.6875 14.6671 17.3339C14.6671 16.9802 14.8076 16.6411 15.0577 16.391C15.3077 16.141 15.6469 16.0005 16.0005 16.0005C16.3541 16.0005 16.6933 16.141 16.9433 16.391C17.1934 16.6411 17.3339 16.9802 17.3339 17.3339Z" fill="white"/>
</svg>
