<svg width="25" height="29" viewBox="0 0 25 29" fill="none" xmlns="http://www.w3.org/2000/svg">
<path d="M19.6429 7.14286C19.6429 3.2043 16.4386 0 12.5 0C8.56138 0 5.35714 3.2043 5.35714 7.14286H0V24.1071C0 26.5727 1.99872 28.5714 4.46429 28.5714H20.5357C23.0013 28.5714 25 26.5727 25 24.1071V7.14286H19.6429ZM12.5 1.78571C15.454 1.78571 17.8571 4.18889 17.8571 7.14286H7.14286C7.14286 4.18889 9.54604 1.78571 12.5 1.78571ZM23.2143 24.1071C23.2143 25.5841 22.0127 26.7857 20.5357 26.7857H4.46429C2.98733 26.7857 1.78571 25.5841 1.78571 24.1071V8.92857H5.35714V11.6071C5.35714 12.1003 5.75692 12.5 6.25 12.5C6.74308 12.5 7.14286 12.1003 7.14286 11.6071V8.92857H17.8571V11.6071C17.8571 12.1003 18.2569 12.5 18.75 12.5C19.2431 12.5 19.6429 12.1003 19.6429 11.6071V8.92857H23.2143V24.1071Z" fill="black"/>
</svg>
