<svg width="22" height="16" viewBox="0 0 22 16" fill="none" xmlns="http://www.w3.org/2000/svg">
<path d="M11.0708 0H11.1932C12.3235 0.00412526 18.0508 0.0453781 19.595 0.460654C20.0618 0.587394 20.4872 0.834433 20.8286 1.17708C21.1701 1.51974 21.4156 1.946 21.5407 2.41328C21.6796 2.93581 21.7772 3.62748 21.8432 4.34115L21.857 4.48416L21.8872 4.84168L21.8982 4.98469C21.9876 6.24152 21.9986 7.41859 22 7.67573V7.77886C21.9986 8.04563 21.9862 9.30246 21.8872 10.6115L21.8762 10.7559L21.8639 10.8989C21.7951 11.6855 21.6934 12.4665 21.5407 13.0413C21.416 13.5088 21.1706 13.9352 20.8291 14.278C20.4876 14.6207 20.062 14.8676 19.595 14.9939C17.9999 15.423 11.9371 15.4532 11.0969 15.4546H10.9017C10.4768 15.4546 8.71942 15.4463 6.8768 15.3831L6.64304 15.3748L6.52341 15.3693L6.28827 15.3597L6.05313 15.3501C4.52678 15.2827 3.07332 15.1741 2.40365 14.9926C1.93679 14.8663 1.51131 14.6196 1.16982 14.2772C0.828329 13.9347 0.582826 13.5085 0.457904 13.0413C0.305269 12.4679 0.203513 11.6855 0.134758 10.8989L0.123758 10.7545L0.112757 10.6115C0.0448933 9.67978 0.00728777 8.74606 0 7.81186L0 7.64273C0.00275017 7.34708 0.0137509 6.3254 0.0880055 5.19782L0.0976311 5.05619L0.101756 4.98469L0.112757 4.84168L0.143009 4.48416L0.15676 4.34115C0.222764 3.62748 0.320395 2.93443 0.459279 2.41328C0.58399 1.94581 0.8294 1.51935 1.1709 1.17664C1.51241 0.833926 1.938 0.587014 2.40503 0.460654C3.07469 0.281893 4.52816 0.171886 6.0545 0.103131L6.28827 0.0935058L6.52478 0.0852555L6.64304 0.0811303L6.87818 0.0715047C8.18686 0.0293921 9.49608 0.00601306 10.8054 0.00137515H11.0708V0ZM8.80055 4.41403V11.0392L14.5168 7.72798L8.80055 4.41403Z" fill="black"/>
</svg>
