<svg width="22" height="22" viewBox="0 0 22 22" fill="none" xmlns="http://www.w3.org/2000/svg">
<path d="M11.0075 2.21414e-06C8.4426 -0.00162443 5.95775 0.893074 3.9826 2.5294C2.00744 4.16572 0.666171 6.4408 0.19069 8.96125C-0.28479 11.4817 0.135414 14.0891 1.37865 16.3326C2.62188 18.576 4.60998 20.3145 6.9992 21.2475C6.90295 20.3771 6.81494 19.0391 7.03633 18.089C7.23709 17.2296 8.32614 12.6203 8.32614 12.6203C8.32614 12.6203 7.9975 11.9617 7.9975 10.9881C7.9975 9.4577 8.88441 8.31639 9.98859 8.31639C10.9264 8.31639 11.3802 9.02043 11.3802 9.86609C11.3802 10.8094 10.7793 12.2202 10.4685 13.5279C10.21 14.6224 11.0185 15.5162 12.0979 15.5162C14.0533 15.5162 15.5562 13.4536 15.5562 10.478C15.5562 7.84475 13.6628 6.00353 10.9608 6.00353C7.83111 6.00353 5.99403 8.35077 5.99403 10.7764C5.99403 11.7224 6.35842 12.7359 6.81219 13.2873C6.85127 13.3288 6.8789 13.3798 6.8924 13.4352C6.90589 13.4907 6.90479 13.5486 6.8892 13.6035C6.80532 13.95 6.61968 14.6981 6.58393 14.8507C6.5358 15.0515 6.42442 15.0941 6.21541 14.9978C4.84035 14.3584 3.98231 12.3495 3.98231 10.7351C3.98231 7.26584 6.50418 4.07982 11.2509 4.07982C15.0667 4.07982 18.0327 6.79832 18.0327 10.4326C18.0327 14.2237 15.6415 17.2749 12.3248 17.2749C11.2096 17.2749 10.1618 16.696 9.80296 16.0113L9.11817 18.6266C8.86929 19.5823 8.19826 20.78 7.74999 21.5101C9.26252 21.9778 10.8582 22.1135 12.428 21.9079C13.9977 21.7023 15.5046 21.1603 16.8457 20.3189C18.1868 19.4775 19.3305 18.3566 20.1986 17.0327C21.0668 15.7087 21.6389 14.213 21.876 12.6477C22.113 11.0823 22.0094 9.48428 21.5722 7.96266C21.135 6.44104 20.3745 5.03173 19.3427 3.83098C18.3109 2.63024 17.032 1.66636 15.5935 1.00519C14.155 0.34403 12.5907 0.00115822 11.0075 2.21414e-06Z" fill="black"/>
</svg>
